<svg width="30" height="36" viewBox="0 0 30 36" fill="none" xmlns="http://www.w3.org/2000/svg">
<path d="M4.08324 20.945L5.13906 21.6141L5.14203 21.6094L4.08324 20.945ZM2.16657 23.9692L1.11076 23.3L1.11056 23.3003L2.16657 23.9692ZM3.96657 28.6083L3.58394 29.7983L3.58841 29.7997L3.96657 28.6083ZM26.0832 28.6083L25.7087 27.4157L25.7051 27.4169L26.0832 28.6083ZM27.8832 23.9692L28.9401 23.3017L28.939 23.3L27.8832 23.9692ZM25.9666 20.945L24.8982 21.5938L24.9044 21.604L24.9108 21.6141L25.9666 20.945ZM18.1166 4.06666L17.7842 5.27166C18.2443 5.39856 18.7365 5.25239 19.0527 4.89495C19.369 4.5375 19.4541 4.03117 19.2721 3.58997L18.1166 4.06666ZM16.5166 3.74999L16.3692 4.99128L16.3736 4.99178L16.5166 3.74999ZM11.9499 4.06666L10.7944 3.58997C10.6123 4.03124 10.6975 4.53766 11.0139 4.8951C11.3302 5.25255 11.8225 5.39862 12.2827 5.27155L11.9499 4.06666ZM15.0332 2.35749C8.88741 2.35749 3.78324 7.11666 3.78324 13.1075H6.28324C6.28324 8.61665 10.1457 4.85749 15.0332 4.85749V2.35749ZM3.78324 13.1075V17.6833H6.28324V13.1075H3.78324ZM3.78324 17.6833C3.78324 18.0077 3.70524 18.4931 3.55216 19.017C3.39944 19.5396 3.20216 19.9974 3.02444 20.2806L5.14203 21.6094C5.48098 21.0693 5.75869 20.3791 5.95181 19.7182C6.14457 19.0585 6.28324 18.3248 6.28324 17.6833H3.78324ZM3.02743 20.2758L1.11076 23.3L3.22238 24.6383L5.13904 21.6141L3.02743 20.2758ZM1.11056 23.3003C0.329334 24.5338 0.159288 25.9342 0.645661 27.1821C1.1287 28.4213 2.19638 29.3522 3.58394 29.7983L4.3492 27.4183C3.57009 27.1678 3.14611 26.7132 2.97498 26.2742C2.80718 25.8437 2.82047 25.2729 3.22258 24.638L1.11056 23.3003ZM3.58841 29.7997C11.0178 32.1578 19.032 32.1578 26.4614 29.7997L25.7051 27.4169C18.7678 29.6188 11.282 29.6188 4.34473 27.4169L3.58841 29.7997ZM26.4578 29.8009C29.2069 28.9375 30.5059 25.7809 28.9401 23.3017L26.8264 24.6366C27.4605 25.6407 26.9929 27.0125 25.7087 27.4158L26.4578 29.8009ZM28.939 23.3L27.0224 20.2758L24.9108 21.6141L26.8274 24.6383L28.939 23.3ZM27.035 20.2962C26.86 20.0081 26.6647 19.5453 26.5134 19.0209C26.3613 18.4943 26.2832 18.0081 26.2832 17.6833H23.7832C23.7832 18.3244 23.9218 19.0573 24.1114 19.7143C24.3017 20.3735 24.5731 21.0586 24.8982 21.5938L27.035 20.2962ZM26.2832 17.6833V13.1075H23.7832V17.6833H26.2832ZM26.2832 13.1075C26.2832 7.13249 21.1624 2.35749 15.0332 2.35749V4.85749C19.9041 4.85749 23.7832 8.63249 23.7832 13.1075H26.2832ZM18.4489 2.86165C17.88 2.70474 17.2829 2.57998 16.6596 2.50819L16.3736 4.99178C16.8502 5.04667 17.3198 5.14357 17.7842 5.27166L18.4489 2.86165ZM16.664 2.50871C14.9128 2.30075 13.2158 2.42027 11.6172 2.86176L12.2827 5.27155C13.5507 4.92137 14.9204 4.81922 16.3692 4.99127L16.664 2.50871ZM13.1054 4.54334C13.3898 3.85405 14.1237 3.32166 15.0332 3.32166V0.821655C13.1428 0.821655 11.4767 1.93593 10.7944 3.58997L13.1054 4.54334ZM15.0332 3.32166C15.9428 3.32166 16.6767 3.85405 16.961 4.54334L19.2721 3.58997C18.5898 1.93593 16.9237 0.821655 15.0332 0.821655V3.32166ZM18.7832 29.1783C18.7832 31.0408 17.1541 32.6783 15.0332 32.6783V35.1783C18.4124 35.1783 21.2832 32.5408 21.2832 29.1783H18.7832ZM15.0332 32.6783C13.9919 32.6783 13.0321 32.2664 12.3608 31.6287L10.639 33.4412C11.7677 34.5136 13.3413 35.1783 15.0332 35.1783V32.6783ZM12.3608 31.6287C11.6906 30.9921 11.2832 30.1092 11.2832 29.1783H8.78324C8.78324 30.8441 9.50916 32.3679 10.639 33.4412L12.3608 31.6287Z" fill="white"/>
</svg>
